<svg xmlns="http://www.w3.org/2000/svg" xmlns:xlink="http://www.w3.org/1999/xlink" width="159.761" height="43" viewBox="0 0 159.761 43"><defs><linearGradient id="linear-gradient" x1="-2.188" y1="1.29" x2="4.648" y2="-0.203" gradientUnits="objectBoundingBox"><stop offset="0" stop-color="#e66262"></stop><stop offset="1" stop-color="#a254ed"></stop></linearGradient></defs><g id="Group_38" data-name="Group 38" transform="translate(-130 -37.839)"><text id="Sana" transform="translate(246.761 70.839)" fill="#fff" font-size="34" font-family="Sora-Bold, Sora" font-weight="700"><tspan x="-42.619" y="0">Sana</tspan></text><g id="sound-waves" transform="translate(130 40.019)"><g id="Group_2" data-name="Group 2" transform="translate(24.713 11.894)"><g id="Group_1" data-name="Group 1" transform="translate(0 0)"><path id="Path_1" data-name="Path 1" d="M214.275,189.02A1.982,1.982,0,0,0,212.293,191v11.629a1.982,1.982,0,0,0,3.965,0V191A1.982,1.982,0,0,0,214.275,189.02Z" transform="translate(-212.293 -189.02)" fill="url(#linear-gradient)"></path></g></g><g id="Group_4" data-name="Group 4" transform="translate(18.567 5.749)"><g id="Group_3" data-name="Group 3"><path id="Path_2" data-name="Path 2" d="M161.485,136.231a1.982,1.982,0,0,0-1.982,1.982v23.92a1.982,1.982,0,1,0,3.965,0v-23.92A1.982,1.982,0,0,0,161.485,136.231Z" transform="translate(-159.503 -136.231)" fill="url(#linear-gradient)"></path></g></g><g id="Group_6" data-name="Group 6" transform="translate(12.356 0)"><g id="Group_5" data-name="Group 5"><path id="Path_3" data-name="Path 3" d="M108.128,86.847a1.982,1.982,0,0,0-1.982,1.982v35.417a1.982,1.982,0,0,0,3.965,0V88.829A1.982,1.982,0,0,0,108.128,86.847Z" transform="translate(-106.146 -86.847)" fill="url(#linear-gradient)"></path></g></g><g id="Group_8" data-name="Group 8" transform="translate(6.211 5.749)"><g id="Group_7" data-name="Group 7"><path id="Path_4" data-name="Path 4" d="M55.339,136.231a1.982,1.982,0,0,0-1.982,1.982v23.92a1.982,1.982,0,1,0,3.965,0v-23.92A1.982,1.982,0,0,0,55.339,136.231Z" transform="translate(-53.357 -136.231)" fill="url(#linear-gradient)"></path></g></g><g id="Group_10" data-name="Group 10" transform="translate(0 11.497)"><g id="Group_9" data-name="Group 9"><path id="Path_5" data-name="Path 5" d="M1.982,185.614A1.982,1.982,0,0,0,0,187.6v12.422a1.982,1.982,0,0,0,3.965,0V187.6A1.982,1.982,0,0,0,1.982,185.614Z" transform="translate(0 -185.614)" fill="url(#linear-gradient)"></path></g></g><g id="Group_12" data-name="Group 12" transform="translate(43.28 0)"><g id="Group_11" data-name="Group 11"><path id="Path_6" data-name="Path 6" d="M373.778,86.847a1.982,1.982,0,0,0-1.982,1.982v35.417a1.982,1.982,0,0,0,3.965,0V88.829A1.982,1.982,0,0,0,373.778,86.847Z" transform="translate(-371.796 -86.847)" fill="url(#linear-gradient)"></path></g></g><g id="Group_14" data-name="Group 14" transform="translate(37.069 5.749)"><g id="Group_13" data-name="Group 13"><path id="Path_7" data-name="Path 7" d="M320.421,136.231a1.982,1.982,0,0,0-1.982,1.982v23.92a1.982,1.982,0,1,0,3.965,0v-23.92A1.982,1.982,0,0,0,320.421,136.231Z" transform="translate(-318.439 -136.231)" fill="url(#linear-gradient)"></path></g></g><g id="Group_16" data-name="Group 16" transform="translate(30.924 8.854)"><g id="Group_15" data-name="Group 15" transform="translate(0 0)"><path id="Path_8" data-name="Path 8" d="M267.632,162.909a1.982,1.982,0,0,0-1.982,1.982V182.6a1.982,1.982,0,0,0,3.965,0V164.891A1.982,1.982,0,0,0,267.632,162.909Z" transform="translate(-265.65 -162.909)" fill="url(#linear-gradient)"></path></g></g><g id="Group_18" data-name="Group 18" transform="translate(49.425 5.749)"><g id="Group_17" data-name="Group 17"><path id="Path_9" data-name="Path 9" d="M426.567,136.231a1.982,1.982,0,0,0-1.982,1.982v23.92a1.982,1.982,0,1,0,3.965,0v-23.92A1.982,1.982,0,0,0,426.567,136.231Z" transform="translate(-424.585 -136.231)" fill="url(#linear-gradient)"></path></g></g><g id="Group_20" data-name="Group 20" transform="translate(55.636 11.497)"><g id="Group_19" data-name="Group 19"><path id="Path_10" data-name="Path 10" d="M479.924,185.614a1.982,1.982,0,0,0-1.982,1.982v12.422a1.982,1.982,0,1,0,3.965,0V187.6A1.982,1.982,0,0,0,479.924,185.614Z" transform="translate(-477.942 -185.614)" fill="url(#linear-gradient)"></path></g></g></g></g></svg>